<svg width="500" height="500" viewBox="0 0 500 500" fill="none" xmlns="http://www.w3.org/2000/svg">
<path d="M15.72 254.88L69.48 229.28V239.52L26.472 260L69.48 280.48V290.72L15.72 265.12V254.88ZM152.602 308L115.226 226.592V297.76H124.186V308H94.49V297.76H103.45V222.24H94.49V212H121.114L158.49 293.536V222.24H149.53V212H179.226V222.24H170.266V308H152.602ZM256.477 308L219.101 226.592V297.76H228.061V308H198.365V297.76H207.325V222.24H198.365V212H224.989L262.365 293.536V222.24H253.405V212H283.101V222.24H274.141V308H256.477ZM302.24 212H328.352L352.544 283.168L376.736 212H402.848V222.24H393.888V297.76H402.848V308H373.152V297.76H382.112V229.024L358.176 297.76H346.912L322.976 229.024V297.76H331.936V308H302.24V297.76H311.2V222.24H302.24V212ZM427.845 280.48L470.853 260L427.845 239.52V229.28L481.605 254.88V265.12L427.845 290.72V280.48Z" fill="white"/>
</svg>
